<?xml version="1.0" encoding="UTF-8" standalone="no"?>
<svg
   width="64"
   height="64"
   version="1.1"
   id="svg12"
   sodipodi:docname="org.kde.dolphin.svg"
   inkscape:version="1.1.1 (3bf5ae0d25, 2021-09-20, custom)"
   xmlns:inkscape="http://www.inkscape.org/namespaces/inkscape"
   xmlns:sodipodi="http://sodipodi.sourceforge.net/DTD/sodipodi-0.dtd"
   xmlns="http://www.w3.org/2000/svg"
   xmlns:svg="http://www.w3.org/2000/svg">
  <defs
     id="defs16" />
  <sodipodi:namedview
     id="namedview14"
     pagecolor="#505050"
     bordercolor="#ffffff"
     borderopacity="1"
     inkscape:pageshadow="0"
     inkscape:pageopacity="0"
     inkscape:pagecheckerboard="1"
     showgrid="false"
     inkscape:zoom="5.5225875"
     inkscape:cx="11.498233"
     inkscape:cy="34.4947"
     inkscape:window-width="1304"
     inkscape:window-height="718"
     inkscape:window-x="62"
     inkscape:window-y="26"
     inkscape:window-maximized="1"
     inkscape:current-layer="svg12" />
  <path
     style="opacity:0.2"
     d="m 26.4,26 c -1.4,3.13e-4 -2.8,3.000314 -5.496443,3 H 4.0000007 v 1.173872 L 4,53.826128 C 3.9999999,58 8.2,58 8.2,58 l 47.6,-3.13e-4 C 55.8,58 60,58 60,53.826128 V 26 Z"
     id="path2" />
  <path
     style="fill:#363949;fill-opacity:1"
     d="M 4.0000007,35 H 60 V 15.200157 c 0,-4.199999 -4.2,-4.199999 -4.2,-4.199999 L 32,10.999843 C 30.6,11.000158 29.038192,6.9999797 26.479661,7.0000209 L 8.2,7.000315 c 0,0 -4.2,0 -4.2,4.2 z"
     id="path4" />
  <rect
     style="opacity:0.2;stroke-width:1.3976"
     width="55.903835"
     height="30.74711"
     x="4.0000005"
     y="25.012131"
     id="rect6-3"
     ry="2.7951918"
     rx="2.7951918" />
  <rect
     style="opacity:0.2;stroke-width:1.3976"
     width="50.138802"
     height="30.747112"
     x="9.7650309"
     y="22.166325"
     id="rect6-3-6"
     ry="2.7951918"
     rx="2.7951918" />
  <rect
     style="fill:#7e82a0;fill-opacity:1"
     width="52"
     height="12.6"
     x="6"
     y="16.1"
     rx="1.368"
     ry="1.4"
     id="rect6" />
  <path
     style="fill:#363949;fill-opacity:1"
     d="m 26.4,25 c -1.4,3.13e-4 -2.8,3.000314 -5.496443,3 H 4.0000007 v 1.173872 L 4,52.826128 C 3.9999999,57 8.2,57 8.2,57 l 47.6,-3.13e-4 C 55.8,57 60,57 60,52.826128 V 25 Z"
     id="path8" />
  <path
     style="fill:#ffffff;opacity:0.1"
     d="M 8.1992188 7 C 8.1992188 7 4 7.0011719 4 11.201172 L 4 12.201172 C 4 8.0011719 8.1992188 8 8.1992188 8 L 26.480469 8 C 29.039 7.9999588 30.6 12.000315 32 12 L 55.800781 12 C 55.800781 12 60 11.99922 60 16.199219 L 60 15.199219 C 60 10.99922 55.800781 11 55.800781 11 L 32 11 C 30.6 11.000315 29.039 6.9999588 26.480469 7 L 8.1992188 7 z"
     id="path10" />
</svg>
