<?xml version="1.0" encoding="UTF-8" standalone="no"?>
<svg
   width="64"
   height="64"
   version="1"
   id="svg16"
   sodipodi:docname="user-trash.svg"
   inkscape:version="1.1.1 (3bf5ae0d25, 2021-09-20, custom)"
   xmlns:inkscape="http://www.inkscape.org/namespaces/inkscape"
   xmlns:sodipodi="http://sodipodi.sourceforge.net/DTD/sodipodi-0.dtd"
   xmlns="http://www.w3.org/2000/svg"
   xmlns:svg="http://www.w3.org/2000/svg">
  <defs
     id="defs20" />
  <sodipodi:namedview
     id="namedview18"
     pagecolor="#505050"
     bordercolor="#ffffff"
     borderopacity="1"
     inkscape:pageshadow="0"
     inkscape:pageopacity="0"
     inkscape:pagecheckerboard="1"
     showgrid="false"
     inkscape:zoom="7.1958637"
     inkscape:cx="37.174134"
     inkscape:cy="31.198479"
     inkscape:window-width="1304"
     inkscape:window-height="718"
     inkscape:window-x="62"
     inkscape:window-y="26"
     inkscape:window-maximized="1"
     inkscape:current-layer="svg16"
     inkscape:snap-global="false" />
  <g
     id="g832"
     transform="matrix(1,0,0,1.0017873,-1,1.4964253)">
    <rect
       style="opacity:0.2;stroke-width:0.98095"
       width="45.999996"
       height="50.037735"
       x="10"
       y="8.8605709"
       rx="2.9999998"
       ry="2.8867917"
       id="rect2" />
    <rect
       style="fill:#607d8b;fill-opacity:1;stroke-width:0.966501"
       width="44.654377"
       height="50.037735"
       x="10.672812"
       y="7.8983049"
       rx="2.9122419"
       ry="2.8867917"
       id="rect4" />
    <rect
       style="fill:#78909c;fill-opacity:1;stroke-width:0.991489"
       width="18"
       height="5.8983049"
       x="24"
       y="2"
       id="rect6" />
    <path
       style="opacity:1;fill:none;stroke:#546e7a;stroke-width:5.88568;stroke-linecap:round;stroke-opacity:1"
       d="M 45,12.075812 V 47.351128 M 32.999999,12.075812 V 47.351128 M 20.999998,12.075812 v 35.275316"
       id="path12"
       sodipodi:nodetypes="cccccc" />
    <rect
       style="fill:#78909c;fill-opacity:1;stroke-width:0.834462"
       width="54"
       height="8.3559294"
       x="6"
       y="3.9661016"
       rx="2.9999998"
       ry="2.0889823"
       id="rect10" />
    <path
       style="opacity:0.2;fill:#ffffff;stroke-width:0.991489"
       d="M 8.9999999,3.9661019 C 7.3379999,3.9661019 6,5.2814239 6,6.915254 V 7.898305 C 6,6.2644749 7.3379999,4.9491529 8.9999999,4.9491529 H 56.999999 c 1.662,0 2.999999,1.315322 2.999999,2.9491521 V 6.915254 c 0,-1.6338301 -1.337999,-2.9491521 -2.999999,-2.9491521 z"
       id="path14" />
  </g>
</svg>
