<?xml version="1.0" encoding="UTF-8" standalone="no"?>
<svg
   width="64"
   height="64"
   version="1"
   id="svg16"
   sodipodi:docname="user-trash-full.svg"
   inkscape:version="1.1.1 (3bf5ae0d25, 2021-09-20, custom)"
   xmlns:inkscape="http://www.inkscape.org/namespaces/inkscape"
   xmlns:sodipodi="http://sodipodi.sourceforge.net/DTD/sodipodi-0.dtd"
   xmlns="http://www.w3.org/2000/svg"
   xmlns:svg="http://www.w3.org/2000/svg">
  <defs
     id="defs20" />
  <sodipodi:namedview
     id="namedview18"
     pagecolor="#505050"
     bordercolor="#ffffff"
     borderopacity="1"
     inkscape:pageshadow="0"
     inkscape:pageopacity="0"
     inkscape:pagecheckerboard="1"
     showgrid="false"
     inkscape:zoom="6.7351618"
     inkscape:cx="32.59016"
     inkscape:cy="27.987449"
     inkscape:window-width="1304"
     inkscape:window-height="718"
     inkscape:window-x="62"
     inkscape:window-y="26"
     inkscape:window-maximized="1"
     inkscape:current-layer="svg16" />
  <g
     id="g832"
     transform="translate(-1,1.5)">
    <path
       style="opacity:0.2;stroke-width:0.980951"
       d="m 13,8.9622642 h 40 c 3,0 7,17.3207548 7,25.0188678 C 60,41.679245 57,59 53,59 H 13 C 9,59 6,41.679245 6,33.981132 6,26.283019 10,8.9622642 13,8.9622642 Z"
       id="path2" />
    <path
       style="fill:#607d8b;fill-opacity:1;stroke-width:0.980951"
       d="m 13,8 h 40 c 3,0 7,17.320755 7,25.018868 0,7.698113 -3,25.018868 -7,25.018868 H 13 c -4,0 -7,-17.320755 -7,-25.018868 C 6,25.320755 10,8 13,8 Z"
       id="path4" />
    <path
       style="opacity:1;fill:none;stroke:#546e7a;stroke-width:5.8857;stroke-linecap:round;stroke-opacity:1"
       d="m 45,12.379877 c 0,0 2,7.698382 2,18.289235 0,10.462047 -2,16.783718 -2,16.783718 M 33,12.379877 V 47.45283 M 21,12.379877 c 0,0 -2,7.577572 -2,18.289235 0,10.508971 2,16.783718 2,16.783718"
       id="path12"
       sodipodi:nodetypes="csccccsc" />
    <rect
       style="fill:#78909c;fill-opacity:1"
       width="18"
       height="6"
       x="24"
       y="2"
       id="rect6" />
    <rect
       style="fill:#78909c;fill-opacity:1;stroke-width:0.841625"
       width="54"
       height="8.5"
       x="6"
       y="4"
       rx="3"
       ry="2.125"
       id="rect10" />
    <path
       style="opacity:0.2;fill:#ffffff"
       d="M 9,4 C 7.338,4 6,5.338 6,7 V 8 C 6,6.338 7.338,5 9,5 h 48 c 1.662,0 3,1.338 3,3 V 7 C 60,5.338 58.662,4 57,4 Z"
       id="path14" />
  </g>
</svg>
